<?xml version="1.0" standalone="no"?>
<!DOCTYPE svg PUBLIC "-//W3C//DTD SVG 20010904//EN"
 "http://www.w3.org/TR/2001/REC-SVG-20010904/DTD/svg10.dtd">
<svg version="1.0" xmlns="http://www.w3.org/2000/svg"
 width="600.000000pt" height="600.000000pt" viewBox="0 0 600.000000 600.000000"
 preserveAspectRatio="xMidYMid meet">
<metadata>
Created by potrace 1.11, written by Peter Selinger 2001-2013
</metadata>
<g transform="translate(0.000000,600.000000) scale(0.100000,-0.100000)"
fill="#000000" stroke="none">
<path d="M2710 5991 c0 -5 -28 -12 -62 -16 -83 -9 -285 -43 -323 -55 -16 -5
-59 -16 -95 -26 -69 -18 -246 -72 -320 -99 -39 -14 -131 -57 -310 -144 -25
-12 -58 -31 -75 -42 -16 -10 -39 -23 -50 -29 -217 -115 -571 -416 -763 -649
-85 -103 -192 -247 -192 -258 0 -3 -13 -22 -30 -43 -16 -21 -30 -40 -30 -43 0
-3 -13 -25 -29 -49 -16 -24 -39 -61 -50 -83 -37 -67 -41 -74 -51 -92 -6 -10
-13 -25 -16 -33 -12 -28 -65 -145 -74 -162 -12 -22 -53 -137 -95 -265 -51
-154 -98 -363 -110 -478 -3 -33 -10 -61 -15 -63 -13 -5 -13 -662 -1 -662 5 0
12 -26 15 -57 17 -164 70 -409 123 -558 13 -38 29 -86 35 -105 5 -19 14 -39
19 -45 5 -5 9 -15 9 -23 0 -8 7 -30 16 -50 40 -90 76 -168 85 -182 5 -8 12
-22 15 -30 8 -21 39 -79 63 -120 11 -19 24 -42 28 -50 3 -8 18 -31 33 -50 15
-19 29 -39 31 -45 11 -27 107 -162 190 -265 195 -245 513 -522 784 -682 159
-94 425 -222 510 -245 11 -3 34 -11 52 -19 17 -8 36 -14 43 -14 7 0 33 -7 59
-15 25 -8 73 -21 106 -30 33 -9 83 -22 111 -30 28 -8 64 -15 80 -15 16 0 45
-4 64 -10 19 -5 73 -14 120 -19 46 -5 86 -14 88 -20 5 -15 589 -15 594 -1 2 6
45 15 97 21 51 6 104 15 118 20 13 5 39 9 58 9 18 0 55 6 81 14 27 8 78 22
114 31 106 28 294 87 304 96 6 5 17 9 25 9 8 0 69 26 135 59 67 32 139 66 161
77 130 59 397 240 565 382 82 70 252 240 310 311 25 30 50 59 55 65 72 74 272
377 344 520 49 96 72 147 147 324 8 18 14 41 14 50 0 10 4 22 8 27 5 6 19 42
31 80 12 39 26 84 31 101 10 32 22 85 40 174 6 30 15 76 21 101 5 25 14 84 18
130 5 46 14 85 20 87 15 5 15 499 0 504 -6 2 -14 51 -19 117 -5 62 -13 134
-19 160 -5 25 -15 73 -21 106 -6 33 -18 85 -25 115 -7 30 -19 78 -25 105 -7
28 -16 54 -21 60 -5 5 -9 18 -9 30 0 11 -7 33 -15 49 -8 15 -15 34 -15 42 0 7
-6 28 -14 46 -8 18 -25 60 -38 93 -22 58 -118 264 -138 295 -5 8 -18 31 -29
52 -52 96 -214 330 -295 427 -169 201 -321 346 -520 495 -83 62 -158 116 -166
119 -8 4 -28 16 -45 27 -16 11 -39 24 -50 30 -11 6 -33 19 -50 29 -16 11 -50
30 -75 42 -25 12 -99 48 -165 80 -109 53 -311 125 -455 162 -30 8 -82 22 -115
30 -66 17 -218 43 -307 52 -32 4 -58 11 -58 16 0 5 -120 9 -295 9 -169 0 -295
-4 -295 -9z m665 -251 c72 -11 150 -24 175 -30 62 -16 129 -31 170 -40 19 -5
49 -13 65 -18 17 -6 57 -18 90 -27 33 -10 73 -23 88 -31 16 -8 33 -14 38 -14
19 0 202 -87 359 -172 318 -171 674 -494 885 -803 203 -297 302 -503 404 -840
12 -38 46 -183 60 -255 39 -194 61 -580 42 -740 -17 -152 -30 -241 -42 -295
-36 -166 -41 -183 -93 -346 -27 -85 -121 -308 -161 -384 -83 -156 -217 -359
-290 -441 -5 -6 -35 -42 -65 -80 -95 -119 -261 -278 -399 -381 -13 -10 -40
-32 -60 -48 -60 -51 -101 -78 -216 -147 -111 -65 -319 -173 -365 -189 -14 -4
-70 -24 -125 -44 -55 -20 -113 -40 -130 -45 -115 -33 -194 -52 -290 -69 -60
-11 -144 -25 -185 -33 -98 -17 -580 -18 -665 -1 -33 7 -105 20 -160 29 -237
39 -497 124 -711 232 -516 260 -891 610 -1186 1107 -58 99 -90 163 -134 270
-21 52 -46 109 -60 138 -8 16 -14 37 -14 47 0 11 -6 34 -14 52 -7 18 -21 60
-30 93 -10 33 -24 80 -32 105 -8 25 -14 54 -14 65 0 11 -6 49 -14 85 -32 140
-38 215 -43 490 -5 286 4 418 39 560 6 25 14 63 18 85 3 22 11 56 17 75 6 19
19 62 28 95 9 33 23 75 31 93 8 18 14 40 14 48 0 9 6 28 14 42 8 15 22 47 31
72 34 87 141 299 187 370 152 237 206 310 329 444 252 274 504 461 854 634 28
13 64 30 80 37 59 24 110 47 138 61 16 8 36 14 45 14 9 0 34 6 57 14 22 7 65
20 95 29 50 14 81 22 220 56 39 10 174 32 265 44 17 2 143 5 280 5 202 1 275
-2 380 -18z"/>
<path d="M3287 4270 c-34 -29 -48 -63 -92 -215 -9 -33 -23 -78 -30 -100 -13
-43 -32 -105 -60 -200 -10 -33 -24 -78 -30 -100 -7 -22 -21 -67 -30 -100 -10
-33 -24 -78 -30 -100 -7 -22 -21 -67 -30 -100 -10 -33 -24 -78 -30 -100 -7
-22 -21 -67 -30 -100 -10 -33 -24 -78 -30 -100 -7 -22 -21 -67 -30 -100 -10
-33 -24 -78 -30 -100 -7 -22 -21 -67 -30 -100 -10 -33 -24 -78 -31 -100 -7
-22 -20 -67 -29 -100 -9 -33 -20 -71 -25 -85 -5 -14 -18 -59 -30 -100 -12 -41
-25 -86 -30 -100 -5 -14 -18 -59 -30 -100 -12 -41 -25 -86 -30 -100 -5 -14
-18 -59 -30 -100 -12 -41 -25 -85 -31 -98 -16 -41 -10 -76 22 -115 28 -35 34
-37 86 -37 48 0 58 4 81 29 15 16 35 57 45 92 10 35 24 82 31 104 7 22 21 67
31 100 9 33 23 78 30 100 6 22 20 67 30 100 9 33 23 78 30 100 7 22 21 67 30
100 9 33 23 78 30 100 7 22 23 74 35 115 34 118 42 142 55 185 7 22 23 74 35
115 34 118 42 142 55 185 7 22 23 74 35 115 33 115 41 142 55 185 16 48 35
115 65 215 12 41 25 86 30 100 5 14 18 59 30 100 12 41 25 86 30 100 36 106
55 183 55 228 0 48 -3 57 -33 83 -45 40 -99 40 -145 -1z"/>
<path d="M2143 4118 c-29 -10 -125 -106 -363 -363 -40 -44 -117 -125 -169
-180 -53 -55 -148 -156 -211 -225 -63 -68 -145 -156 -182 -195 -37 -38 -75
-87 -84 -107 -16 -36 -16 -40 0 -75 10 -21 47 -70 84 -109 60 -63 249 -265
327 -349 17 -18 94 -99 171 -181 78 -82 163 -173 190 -203 27 -30 87 -94 134
-143 l85 -88 52 0 c46 0 54 4 82 35 36 42 42 103 13 147 -16 24 -214 237 -342
368 -30 31 -120 126 -199 211 -80 85 -182 193 -228 240 -46 47 -83 95 -83 105
0 11 26 46 58 80 103 109 296 316 321 343 13 14 65 69 115 121 77 81 247 262
339 364 91 99 12 244 -110 204z"/>
<path d="M3790 4118 c-48 -13 -74 -51 -74 -108 0 -54 2 -57 142 -209 82 -90
147 -159 322 -342 26 -27 67 -71 260 -279 63 -68 123 -131 133 -139 33 -30 26
-40 -132 -206 -43 -44 -110 -116 -151 -160 -40 -44 -121 -129 -179 -190 -345
-359 -380 -398 -392 -437 -14 -49 5 -99 46 -125 62 -41 125 -24 190 49 46 52
256 279 300 324 76 78 171 179 230 244 32 36 126 136 209 223 83 88 159 173
168 190 22 41 22 81 1 115 -20 31 -14 24 -113 129 -41 43 -125 133 -186 198
-61 66 -129 138 -150 161 -22 23 -93 99 -159 170 -120 128 -230 245 -315 334
-25 25 -60 52 -79 58 -19 7 -34 12 -35 11 -1 -1 -17 -5 -36 -11z"/>
</g>
</svg>
